<svg width="18" height="18" viewBox="0 0 18 18" fill="none" xmlns="http://www.w3.org/2000/svg">
<path d="M9 14C9.28333 14 9.521 13.904 9.713 13.712C9.90433 13.5207 10 13.2833 10 13V10H13C13.2833 10 13.5207 9.904 13.712 9.712C13.904 9.52067 14 9.28333 14 9C14 8.71667 13.904 8.479 13.712 8.287C13.5207 8.09567 13.2833 8 13 8H10V5C10 4.71667 9.90433 4.479 9.713 4.287C9.521 4.09567 9.28333 4 9 4C8.71667 4 8.47933 4.09567 8.288 4.287C8.096 4.479 8 4.71667 8 5V8H5C4.71667 8 4.479 8.09567 4.287 8.287C4.09567 8.479 4 8.71667 4 9C4 9.28333 4.09567 9.52067 4.287 9.712C4.479 9.904 4.71667 10 5 10H8V13C8 13.2833 8.096 13.5207 8.288 13.712C8.47933 13.904 8.71667 14 9 14ZM2 18C1.45 18 0.979 17.8043 0.587 17.413C0.195667 17.021 0 16.55 0 16V2C0 1.45 0.195667 0.979 0.587 0.587C0.979 0.195667 1.45 0 2 0H16C16.55 0 17.021 0.195667 17.413 0.587C17.8043 0.979 18 1.45 18 2V16C18 16.55 17.8043 17.021 17.413 17.413C17.021 17.8043 16.55 18 16 18H2ZM2 16H16V2H2V16ZM2 16V2V16Z" fill="#106681"/>
</svg>
