<svg width="20" height="30" viewBox="0 0 20 30" fill="none" xmlns="http://www.w3.org/2000/svg">
<path fill-rule="evenodd" clip-rule="evenodd" d="M9.73096 15C13.8731 15 17.231 11.6421 17.231 7.5C17.231 3.35786 13.8731 0 9.73096 0C5.58883 0 2.23096 3.35786 2.23096 7.5C2.23096 11.6421 5.58883 15 9.73096 15ZM4.2527 14.0303C1.82664 13.5326 -0.347532 15.616 0.0464301 18.0611L0.955668 23.7041C1.54029 27.3325 4.67203 30 8.34718 30H11.7163C15.5205 30 18.7129 27.1322 19.1192 23.3497L19.7311 17.6533C19.9762 15.3713 17.9045 13.525 15.6657 14.0303L15.4434 14.254C12.3318 17.3839 7.23679 17.2821 4.2527 14.0303Z" fill="#AEAEAE"/>
</svg>
